<?xml version="1.0" ?>
<!-- Uploaded to: SVG Repo, www.svgrepo.com, Generator: SVG Repo Mixer Tools -->
<svg width="800px" height="800px" viewBox="0 0 64 64" xmlns="http://www.w3.org/2000/svg">
<defs>
<style>.cls-1{fill:none;stroke:#000000;stroke-linecap:round;stroke-linejoin:round;stroke-width:2px;}</style>
</defs>
<g id="purchase-mobile">
<path class="cls-1" d="M35,37.7619V10.0738A4.0738,4.0738,0,0,0,30.9262,6H9.0739A4.0738,4.0738,0,0,0,5,10.0739V55.9261A4.0738,4.0738,0,0,0,9.0739,60H30.9261A4.0738,4.0738,0,0,0,35,55.9261v-5.77"/>
<path class="cls-1" d="M26,6.4039h0A2.5961,2.5961,0,0,1,23.4039,9H16.5961A2.5961,2.5961,0,0,1,14,6.4039h0"/>
<line class="cls-1" x1="15" x2="25" y1="57" y2="57"/>
<rect class="cls-1" height="12" rx="6" width="37" x="12" y="38"/>
<circle class="cls-1" cx="52" cy="29" r="2"/>
<circle cx="51.5" cy="13.5" r="1.1323"/>
<line class="cls-1" x1="43.5858" x2="46.4142" y1="13.5858" y2="16.4142"/>
<line class="cls-1" x1="46.4142" x2="43.5858" y1="13.5858" y2="16.4142"/>
<polyline class="cls-1" points="23 41 17 41 17 44 23 44 23 47 17 47"/>
<line class="cls-1" x1="20" x2="20" y1="39" y2="49"/>
<line class="cls-1" x1="27" x2="44" y1="44" y2="44"/>
<circle class="cls-1" cx="16.9343" cy="29.5912" r="1.5"/>
<circle class="cls-1" cx="25.9343" cy="29.5912" r="1.5"/>
<polyline class="cls-1" points="8.434 15.091 11.434 15.091 14.434 27.091 28.434 27.091 30.434 19.091 12.616 19.091"/>
</g>
</svg>