<?xml version="1.0" encoding="iso-8859-1"?>
<!-- Uploaded to: SVG Repo, www.svgrepo.com, Generator: SVG Repo Mixer Tools -->
<svg fill="#000000" height="800px" width="800px" version="1.1" id="Layer_1" xmlns="http://www.w3.org/2000/svg" xmlns:xlink="http://www.w3.org/1999/xlink" 
	 viewBox="0 0 512 512" xml:space="preserve">
<g>
	<g>
		<path d="M308.676,250.207h-19.108l-78.731,99.562l-78.732-99.562h-19.108c-37.402,0-67.831,30.429-67.831,67.831V512h200.67
			V318.301h5.086h125.586v-0.263C376.507,280.637,346.078,250.207,308.676,250.207z M162.64,348.818H80.849v-30.517h81.791V348.818z
			"/>
	</g>
</g>
<g>
	<g>
		<path d="M210.835,262.049c-11.708,0-23.068-1.514-33.901-4.348l33.901,42.871l33.901-42.871
			C233.904,260.535,222.544,262.049,210.835,262.049z"/>
	</g>
</g>
<g>
	<g>
		<path d="M274.355,0H147.316c-22.051,0-39.992,17.941-39.992,39.992v17.365h207.022V39.992C314.347,17.941,296.406,0,274.355,0z"/>
	</g>
</g>
<g>
	<g>
		<path d="M107.324,87.873v40.148c0,57.076,46.435,103.511,103.511,103.511c57.076,0,103.511-46.435,103.511-103.511V87.873H107.324
			z"/>
	</g>
</g>
<g>
	<g>
		<polygon points="429.14,348.818 429.14,395.861 398.623,395.861 398.623,348.818 344.562,348.818 344.562,395.861 
			314.046,395.861 314.046,348.818 281.437,348.818 276.351,348.818 276.351,512 466.835,512 466.835,348.818 		"/>
	</g>
</g>
<g>
	<g>
		<polygon points="344.863,57.357 314.347,57.357 314.347,87.873 344.863,87.873 393.535,87.873 393.535,57.357 		"/>
	</g>
</g>
</svg>