<svg xmlns="http://www.w3.org/2000/svg" shape-rendering="geometricPrecision" text-rendering="geometricPrecision" image-rendering="optimizeQuality" fill-rule="evenodd" clip-rule="evenodd" viewBox="0 0 512 490.08"><path fill-rule="nonzero" d="M294.46 29.84c12.39 3.81 24.21 9.02 35.29 15.45a157.01 157.01 0 0 0-30.77 14.98c-5.89-2.43-11.96-4.48-18.19-6.11-4.48-1.17-8.25-4.59-9.63-9.36-1.81-6.24-5.77-10.83-10.7-13.73-4.35-2.58-9.62-3.88-14.92-3.88-5.23-.06-10.45 1.25-14.79 3.84-4.75 2.83-8.57 7.36-10.34 13.58-1.34 4.53-4.98 8.27-9.89 9.46C183.6 60.63 159.55 75.25 141 95c-18.63 19.83-31.71 44.86-36.66 72.17-3.34 18.47-2.91 41.71-2.53 63.08l.3 19.79c0 31.57-5.5 58.13-17.72 81.52-11.71 22.4-29.37 41.44-54.02 58.71l429.48.01c-18.55-12.91-33.13-26.87-44.19-42.52 9.56-2.02 18.81-4.9 27.65-8.58 9.23 11.2 20.98 21.47 35.5 31.19 5.64 3.76 9.04 8.95 10.55 14.51l.21.89c1.02 4.43.78 9.08-.52 13.37-1.39 4.56-4.03 8.81-7.64 11.99l-1.2.94c-4.19 3.27-9.53 5.32-15.66 5.34l-136.31.03-.09.36c-16.54 96.56-150.1 96.3-166.19-.32l-136.26.02c-7.1 0-13.11-2.69-17.55-6.89-3.51-3.28-5.96-7.49-7.21-11.94l-.22-.91c-1-4.2-.98-8.71.2-12.99 1.61-5.88 5.27-11.26 11.14-14.93 22.52-15.28 38.3-31.74 48.27-50.84 10.03-19.2 14.54-41.71 14.54-68.96l-.19-19.38c-.39-22.63-.85-47.25 2.94-68.28 5.91-32.62 21.47-62.42 43.59-85.99 20.42-21.73 46.51-38.24 75.84-46.79 4.41-9.61 11.43-16.91 19.75-21.87 8.64-5.16 18.73-7.74 28.74-7.73 9.94-.05 20.02 2.54 28.71 7.66 8.53 5.01 15.69 12.42 20.21 22.18zm125.03 101.91c-1.59-1.09-3.42-1.59-5.26-1.21-1.82.35-3.41 1.33-4.5 2.91l-6.23 8.78c-4.21-1.88-9.58-3.11-14.14-3.77l-1.94-11.48c-.38-1.93-1.36-3.4-2.82-4.51-1.58-1.09-3.28-1.45-5.24-1.09l-14.38 2.57c-1.84.36-3.3 1.22-4.51 2.8-1.1 1.59-1.59 3.3-1.23 5.25l1.83 10.49c-4.42 1.85-8.81 4.54-12.56 7.56l-9.76-6.72c-1.59-1.1-3.28-1.58-5.12-1.22-1.83.38-3.41 1.36-4.51 2.94l-8.3 11.83c-1.09 1.58-1.57 3.4-1.21 5.24.35 1.95 1.33 3.41 2.93 4.51l8.77 6.23c-1.85 4.17-3.11 9.6-3.76 14.14l-11.47 1.94c-1.96.38-3.42 1.35-4.52 2.81-1.1 1.58-1.45 3.29-1.1 5.24l2.56 14.39c.37 1.84 1.22 3.29 2.81 4.51 1.58 1.1 3.3 1.6 5.25 1.22l10.48-1.82c1.94 4.58 4.59 8.72 7.56 12.68l-6.71 9.63c-1.1 1.59-1.58 3.29-1.21 5.12.36 1.84 1.34 3.41 2.93 4.51l11.95 8.42c1.58 1.1 3.41 1.46 5.22 1.1 1.84-.36 3.42-1.22 4.66-2.81l6.2-8.9c4.27 1.89 9.53 3.07 14.17 3.79l1.94 11.46c.35 1.95 1.33 3.41 2.8 4.51 1.59 1.09 3.3 1.47 5.25 1.09l14.39-2.55c1.84-.38 3.28-1.23 4.51-2.82 1.09-1.58 1.57-3.28 1.21-5.23l-1.81-10.49c4.62-1.95 8.66-4.57 12.66-7.57l9.65 6.71c1.59 1.1 3.28 1.58 5.24 1.22 1.95-.36 3.41-1.33 4.51-2.94l8.41-11.95a6.694 6.694 0 0 0 1.1-5.22c-.37-1.84-1.21-3.42-2.8-4.65l-8.9-6.09c1.85-4.18 3.11-9.62 3.76-14.14l11.47-1.95c1.96-.37 3.42-1.35 4.52-2.82 1.1-1.58 1.48-3.28 1.1-5.23l-2.56-14.4c-.37-1.82-1.22-3.29-2.81-4.5-1.58-1.11-3.3-1.59-5.25-1.23l-10.48 1.84c-2.02-4.56-4.43-8.67-7.56-12.56l6.71-9.77c1.1-1.57 1.58-3.29 1.21-5.1-.36-1.84-1.34-3.43-2.93-4.54l-11.83-8.27-.35.11zm-36.57 31.14c16.98 0 30.74 13.77 30.74 30.75s-13.76 30.74-30.74 30.74c-16.98 0-30.76-13.76-30.76-30.74 0-16.98 13.78-30.75 30.76-30.75zm-.03-98.35c35.66 0 67.94 14.46 91.29 37.81 23.35 23.36 37.82 55.64 37.82 91.29 0 35.63-14.47 67.94-37.82 91.29-23.35 23.35-55.66 37.82-91.29 37.82-35.63 0-67.93-14.47-91.29-37.82-23.35-23.35-37.81-55.66-37.81-91.29 0-35.65 14.46-67.93 37.81-91.29 23.36-23.35 55.66-37.81 91.29-37.81zm75.65 53.45c-19.34-19.34-46.1-31.33-75.65-31.33-29.54 0-56.31 11.99-75.65 31.33-19.34 19.34-31.33 46.11-31.33 75.65 0 29.54 11.99 56.31 31.33 75.65 19.34 19.34 46.11 31.33 75.65 31.33 29.55 0 56.31-11.99 75.65-31.33 19.34-19.34 31.33-46.11 31.33-75.65 0-29.54-11.99-56.31-31.33-75.65z"/></svg>