<?xml version="1.0" encoding="utf-8"?>
<!-- Uploaded to: SVG Repo, www.svgrepo.com, Generator: SVG Repo Mixer Tools -->
<svg width="800px" height="800px" viewBox="0 -18.28 343.503 343.503" xmlns="http://www.w3.org/2000/svg"><defs><style>.a{fill:#bdbab9;}.b{fill:#ffffff;}.c{fill:#211715;}.d{fill:#bcb9b8;}.e{fill:#7a7473;}</style></defs><path class="a" d="M197.626,240.218c0-7.128-.069-9.872-.069-16.3a11.393,11.393,0,0,0-4.163-8,11.615,11.615,0,0,0-7.408-2.96c-8.644,0-21.778-.3-31.111-.3H94.07c-9.333,0-22.466.3-31.111.3a11.61,11.61,0,0,0-7.407,2.96,11.39,11.39,0,0,0-4.164,8c0,6.431-.069,9.175-.069,16.3l-1.1-.623c-1.346-1.224-1.254-.952-6.74-.865-4.339.069-9.12,3.628-9.168,7.967-.133,12.119-.472,24.315.011,36.692.111,2.865,1.06,7.808,3.362,10.44,2.455,2.805,5.043,4.916,10.854,4.916,14.419,0,56.064.052,76.2.054s61.778-.054,76.2-.054c5.811,0,8.4-2.111,10.854-4.916,2.3-2.632,3.251-7.575,3.363-10.44.482-12.377.143-24.573.01-36.692-.048-4.339-4.421-7.842-8.76-7.911-5.486-.088-5.8-.415-7.148.809Z"/><path class="b" d="M93.409,229.77a118.069,118.069,0,0,1,13.564,2.032,3.568,3.568,0,0,1,2.083,1.288,6.169,6.169,0,0,1,.585,2.047c.223,5.251-.543,11.852-1.683,19.065a2,2,0,0,1-.48,1.135,1.866,1.866,0,0,1-1.407.375c-2.884-.094-15.235-.426-18.065-.622"/><path class="b" d="M90.868,226.438c-.994-3.143-3.732-4.368-7.1-3.88-4.209.61-16.032,2.531-20.079,3.84-2.915.942-3.507,4.212-3.462,5.158a179.731,179.731,0,0,0,2.654,20.179c.693,3.3,3.82,5.188,5.971,4.867,7.165-1.07,19.047-2.625,23.416-3.427,3.291-.969,3.678-5.04,3.118-8.28C94.507,239.81,91.675,228.986,90.868,226.438Z"/><path class="c" d="M92.8,225.906a7.629,7.629,0,0,0-4.744-5c-2.063-.707-4.149-.388-6.245-.068-4.1.626-8.2,1.316-12.266,2.122-3.676.728-8.459,1.147-10.362,4.884-1.534,3.012-.767,6.445-.414,9.653.533,4.829,1.115,9.7,2.123,14.457a8.567,8.567,0,0,0,3.92,5.629c2.07,1.248,4.019,1.02,6.3.689,4.864-.707,9.735-1.366,14.6-2.069,1.954-.282,3.908-.565,5.855-.889a6.441,6.441,0,0,0,5.017-3.326c2.2-4.234.427-9.56-.593-13.892-.961-4.08-1.932-8.193-3.186-12.195-.767-2.448-4.63-1.4-3.857,1.063.92,2.937,1.651,5.942,2.394,8.927.849,3.416,2.016,7.036,2.239,10.564.088,1.4.1,3.5-1.16,4.454-.972.732-2.821.7-3.987.876-4.182.643-8.375,1.213-12.565,1.8q-3.072.432-6.144.875c-1.531.224-2.642.156-3.793-1.072-1.3-1.382-1.4-3.53-1.7-5.314-.365-2.123-.678-4.256-.953-6.392a97.235,97.235,0,0,1-1.033-10c0-.082.008-.658-.012-.437-.014.158.116-.553.163-.718a3.662,3.662,0,0,1,.89-1.606c.919-.912,2.6-1.084,3.808-1.364,4.154-.96,8.37-1.674,12.577-2.361,2.976-.486,7.951-2.1,9.279,1.761C89.771,229.39,93.637,228.35,92.8,225.906Z"/><path class="c" d="M97.65,232.177c1.877.262,3.746.588,5.61.933.869.161,1.738.326,2.6.5.408.082,1.18.146,1.473.482a2.963,2.963,0,0,1,.292,1.032c.054.3.019.074.012.011.025.235.018.486.024.724.026,1.019.016,2.038-.018,3.057-.07,2.119-.245,4.234-.471,6.342-.257,2.4-.59,4.8-.956,7.187a9.885,9.885,0,0,0-.251,1.533l.483-.27-.381,0a1.619,1.619,0,0,0-.25-.008c-.455-.01-.909-.028-1.363-.041q-4.1-.123-8.2-.248c-2.75-.087-5.507-.141-8.253-.325-2.57-.171-2.559,3.83,0,4,5.776.386,11.583.422,17.368.6,2.024.062,3.861-.467,4.452-2.646a33.18,33.18,0,0,0,.608-3.941c.213-1.5.413-2.992.59-4.491.285-2.424.513-4.856.608-7.295a17.426,17.426,0,0,0-.382-6.146c-.822-2.448-2.982-3.159-5.3-3.609-2.4-.468-4.817-.9-7.242-1.242a2.068,2.068,0,0,0-2.46,1.4,2.014,2.014,0,0,0,1.4,2.46Z"/><path class="c" d="M52.223,274.645q30.617.788,61.26.471c2.493-.023,5.067.123,7.55-.115a6.051,6.051,0,0,0,5.06-4.965,24.772,24.772,0,0,0,.1-3.864c.011-1.179.03-2.358.044-3.537.027-2.335.434-5.115-1.887-6.522a6.6,6.6,0,0,0-3.21-.694q-1.99-.09-3.983-.159-4.32-.15-8.642-.23c-6.166-.123-12.334-.175-18.5-.205-12.761-.061-25.566-.3-38.317.275-2.564.116-2.578,4.117,0,4,10.419-.469,20.871-.327,31.3-.3,11.524.031,23.055.061,34.573.474q1.787.065,3.573.144c.4.019.66.043.955.066.435.034.139.024.161.092a7.46,7.46,0,0,1-.007,1.882q-.006.671-.014,1.34c-.014,1.124-.031,2.249-.042,3.373-.014,1.514.524,4.546-1.648,4.857a26.7,26.7,0,0,1-3.384.047q-1.841.022-3.681.04-15.26.143-30.518,0c-10.248-.078-20.5-.212-30.742-.475-2.575-.066-2.574,3.934,0,4Z"/><path class="c" d="M197.251,270.645c-19.728.762-39.517.643-59.255.492q-3.656-.029-7.313-.073a12.279,12.279,0,0,1-2.826-.055,2.267,2.267,0,0,1-1.383-2.308c0-2.653-.061-5.305-.074-7.958,0-.254-.007-.509,0-.763.008-.432.126-.558-.079-.4.052-.04.573-.146.429-.124a43.63,43.63,0,0,1,4.606-.227c11.774-.516,23.568-.507,35.351-.5,10.074.007,20.194.1,30.254.668,2.572.145,2.564-3.855,0-4-9.482-.538-19.014-.618-28.509-.663-12.225-.058-24.472-.048-36.688.477-1.528.065-3.058.131-4.585.221a5.429,5.429,0,0,0-3.492,1.143,4.649,4.649,0,0,0-1.286,3.793c0,1.352.023,2.7.041,4.056.04,2.99-.478,6.175,1.595,8.621,1.853,2.187,4.369,1.991,6.964,2.023q16.578.2,33.157.107c11.03-.048,22.072-.1,33.1-.53,2.565-.1,2.578-4.1,0-4Z"/><path class="c" d="M54.223,272.645c-.309-8.611-.66-17.221-.976-25.832-.1-2.764.423-6.853-1.89-8.878-1.525-1.333-3.2-1.317-5.139-1.268-3.533.091-6.734.3-9.669,2.5a10.851,10.851,0,0,0-3.312,3.821,11.427,11.427,0,0,0-.943,5.161c-.11,8.949-.3,17.9-.187,26.848.093,6.969-.439,15.249,4.637,20.774a14.438,14.438,0,0,0,7.044,4.428,31.262,31.262,0,0,0,7.734.544q16.574.006,33.149.026,18.179.016,36.358.027,16.743.006,33.488-.018,18.272-.015,36.543-.031l6.68,0a34.213,34.213,0,0,0,7.614-.464,14.229,14.229,0,0,0,7.184-4.3,17.035,17.035,0,0,0,4.134-8.664,66.658,66.658,0,0,0,.684-11.578c.068-4.493.055-8.986.01-13.478-.044-4.461-.12-8.921-.177-13.381a14.179,14.179,0,0,0-.691-5.385,10.228,10.228,0,0,0-3.1-4.1,11.68,11.68,0,0,0-4.712-2.323,27.778,27.778,0,0,0-5.221-.355c-1.979-.058-3.826-.109-5.4,1.269-2.312,2.03-1.75,6.316-1.851,9.072q-.237,6.414-.489,12.826-.246,6.382-.478,12.766c-.093,2.574,3.907,2.571,4,0,.288-8.053.614-16.1.914-24.157.067-1.81.117-3.621.194-5.43a8.081,8.081,0,0,1,.181-1.62c.027-.108.123-.395.137-.441.064-.2.239-.209.082-.083a2.4,2.4,0,0,1,.313-.194c.059-.033-.394.07-.032.025.07-.008.492-.094.2-.052s.29-.006.391-.009c1.284-.038,2.575.056,3.859.084,2.924.065,5.861,1.136,7.208,3.958.713,1.493.481,3.276.5,4.881q.039,3.037.085,6.074c.119,8.411.212,16.825-.045,25.235-.167,5.458-.987,11.363-6.123,14.414-2.253,1.338-4.809,1.414-7.359,1.415l-5.593,0q-16.45.009-32.9.027-16.8.015-33.609.024-15.639,0-31.278-.017l-34.741-.03q-6.192,0-12.383-.006c-2.657,0-5.247-.244-7.49-1.8a11.469,11.469,0,0,1-4.329-5.743,31.527,31.527,0,0,1-1.231-9.526c-.112-4.177-.141-8.355-.127-12.533.015-4.228.074-8.456.134-12.683q.045-3.157.087-6.314a6.654,6.654,0,0,1,.889-4.009c1.69-2.528,4.538-3.369,7.414-3.434,1.19-.026,2.379-.048,3.569-.053.414,0-.016-.018.038-.011a1.663,1.663,0,0,1,.338.087c.127.043-.443-.185-.09-.018s-.186-.221.024.006a3.617,3.617,0,0,1,.644,2.479c.071,1.842.129,3.685.2,5.528q.225,6.038.462,12.076.228,5.921.443,11.843c.092,2.566,4.092,2.579,4,0Z"/><path class="c" d="M199.626,240.218c0-3.7-.031-7.391-.053-11.087-.022-3.753.274-7.343-1.6-10.745a14.744,14.744,0,0,0-9.215-7.1,25.651,25.651,0,0,0-5.709-.343q-2.776-.017-5.551-.051c-11.369-.133-22.733-.238-34.1-.238H109.454c-10.611,0-21.217.015-31.827.158-3.971.054-7.941.11-11.912.132a24.767,24.767,0,0,0-5.529.342,14.448,14.448,0,0,0-5.524,2.8,13.372,13.372,0,0,0-5.267,9.528c-.175,3.509-.036,7.066-.058,10.581q-.018,3.012-.018,6.024c0,2.574,4,2.578,4,0,0-3.582.028-7.164.051-10.746.021-3.371-.443-6.733,1.434-9.709a10.384,10.384,0,0,1,8.82-4.809c3.626-.006,7.252-.051,10.878-.1q15.9-.207,31.8-.2h32.644c9.881,0,19.76-.01,29.641.121,3.887.052,7.775.109,11.663.146,3.4.032,7.073-.481,10.125,1.305,2.79,1.633,5.155,4.553,5.182,7.909.028,3.411.032,6.823.052,10.234q.016,2.923.017,5.847c0,2.574,4,2.578,4,0Z"/><path class="c" d="M195.212,298.725v5.634c-1.031,0-9.282.057-10.83.058,0-2.415,0-5.692,0-5.692"/><path class="c" d="M193.212,298.725v5.634l2-2c-3.61.012-7.22.056-10.83.058l2,2q0-2.847,0-5.692a2,2,0,0,0-4,0q0,2.846,0,5.692a2.03,2.03,0,0,0,2,2c3.61,0,7.22-.046,10.83-.058a2.03,2.03,0,0,0,2-2v-5.634a2,2,0,0,0-4,0Z"/><path class="c" d="M62.787,298.725v6.164c-1.03,0-9.281.063-10.829.063,0-2.642,0-6.227,0-6.227"/><path class="c" d="M60.787,298.725v6.164l2-2c-3.61.014-7.219.061-10.829.063l2,2q0-3.112,0-6.227a2,2,0,0,0-4,0q0,3.114,0,6.227a2.028,2.028,0,0,0,2,2c3.61,0,7.219-.049,10.829-.063a2.03,2.03,0,0,0,2-2v-6.164a2,2,0,0,0-4,0Z"/><path class="b" d="M341.5,61.373V61.01c-4.663,0-86.127-.058-94.517-.058,0,59.839-.216,159.638-.218,186.568,7.675-.006,91.635.052,94.519.052,0-26.554.216-181.6.216-185.831Z"/><path class="d" d="M298.891,65.293v-4.31l-9.116-.006c.01,38.516-.172,103.531-.172,107.812,3.032,0,6.087,0,9.115,0C298.718,164.508,298.881,104.986,298.891,65.293Z"/><path class="c" d="M248.768,247.646q0-11.578.022-23.157.024-17.414.052-34.827.033-20.821.063-41.642.031-21.522.055-43.044.02-19.785.026-39.572V60.99c0-2.574-4-2.578-4,0q0,19.4-.021,38.791-.021,21.444-.052,42.887-.03,21.057-.063,42.113-.029,17.961-.055,35.923-.016,12.438-.027,24.877v2.065c0,2.574,4,2.578,4,0Z"/><path class="c" d="M291.586,167.71c0-10.258.039-20.517.064-30.775q.059-24.386.1-48.77.019-12.555.023-25.109c0-2.574-4-2.578-4,0q0,23.52-.064,47.039-.047,22.094-.1,44.187-.015,6.714-.023,13.428c0,2.573,4,2.578,4,0Z"/><path class="c" d="M300.7,167.71c0-10.258.04-20.517.065-30.775q.057-24.386.1-48.77.019-12.555.023-25.109c0-2.574-4-2.578-4,0q0,23.52-.064,47.039-.047,22.094-.1,44.187Q296.71,161,296.7,167.71c0,2.573,4,2.578,4,0Z"/><path class="c" d="M339.5,61.741q0,8.819-.021,17.638-.026,19.695-.052,39.391-.031,24.453-.062,48.905-.029,23.195-.054,46.389-.017,15.525-.026,31.049,0,1.083,0,2.167c0,2.573,4,2.578,4,0q0-14.292.022-28.582.024-22.494.052-44.987.03-24.615.062-49.228l.054-41.4q.014-10.4.026-20.795v-.552c0-2.574-4-2.578-4,0Z"/><path class="c" d="M246.973,170.761q17.185,0,34.372.02l47.364.031q6.266,0,12.531.007c2.574,0,2.579-4,0-4q-15.846,0-31.693-.02l-48.118-.03q-7.228,0-14.456-.008c-2.574,0-2.578,4,0,4Z"/><path class="c" d="M246.973,62.952q17.179,0,34.359.02l47.65.031q6.259,0,12.521.007c2.574,0,2.578-4,0-4q-15.841,0-31.682-.02l-48.4-.031q-7.222,0-14.444-.007c-2.574,0-2.578,4,0,4Z"/><path class="c" d="M246.973,249.515q17.179,0,34.359.019l47.65.031q6.259,0,12.521.007c2.574,0,2.578-4,0-4q-15.841,0-31.682-.019-24.2-.017-48.4-.031-7.222,0-14.444-.007c-2.574,0-2.578,4,0,4Z"/><path class="c" d="M250.172,253.2q16,0,32.005.019l44.411.031q5.857,0,11.716.008c2.574,0,2.578-4,0-4q-14.754,0-29.51-.02l-45.111-.031q-6.755,0-13.511-.007c-2.573,0-2.578,4,0,4Z"/><path class="c" d="M246.973,199.817q17.091,0,34.183.02l47.434.031q6.282,0,12.563.007c2.574,0,2.578-4,0-4q-15.755,0-31.508-.02l-48.182-.031q-7.245,0-14.49-.007c-2.574,0-2.578,4,0,4Z"/><path class="b" d="M210.074,19.2v-.074c-5.045,0-93.151.407-102.25.407,0,41.052-.235,109.531-.236,127.845,11.03,0,107.734-.112,102.253-.091C209.84,129.116,210.071,23.48,210.074,19.2Z"/><path class="b" d="M111.116,12.691l-3.056,6.147-.348.7c8.355,0,96.441-.407,102.283-.411-.1-.174-.157-.289-.157-.289L204.9,8.9A6.064,6.064,0,0,0,203.073,6.4a4.583,4.583,0,0,0-2.565-.5c-4.2.008-22.853.012-41.559.012s-37.359,0-41.558-.012a4.583,4.583,0,0,0-2.565.5A6.056,6.056,0,0,0,113,8.9Z"/><path class="d" d="M158.943,36.885c-23.628,0-38.4,15.155-38.4,37.6,0,21.283,14.395,37.6,38.409,37.6,24.135,0,38.4-15.566,38.4-37.6C197.352,53.161,184.646,36.885,158.943,36.885Z"/><path class="c" d="M205.435,147.636v5.828c-.974,0-8.776.06-10.239.06,0-2.5,0-5.888,0-5.888"/><path class="c" d="M203.435,147.636v5.828l2-2c-3.413.013-6.826.058-10.239.06l2,2q0-2.945,0-5.888a2,2,0,1,0-4,0q0,2.944,0,5.888a2.028,2.028,0,0,0,2,2c3.413,0,6.826-.047,10.239-.06a2.03,2.03,0,0,0,2-2v-5.828a2,2,0,0,0-4,0Z"/><path class="c" d="M122.453,147.636v5.828c-.975,0-8.776.06-10.239.06,0-2.5,0-5.888,0-5.888"/><path class="c" d="M120.453,147.636v5.828l2-2c-3.413.013-6.826.058-10.239.06l2,2q0-2.945,0-5.888a2,2,0,0,0-4,0q0,2.944,0,5.888a2.028,2.028,0,0,0,2,2c3.413,0,6.826-.047,10.239-.06a2.03,2.03,0,0,0,2-2v-5.828a2,2,0,0,0-4,0Z"/><path class="e" d="M158.944,46.516c-17.575,0-28.561,11.273-28.561,27.966,0,15.832,10.708,27.967,28.571,27.967,17.952,0,28.561-11.579,28.561-27.967C187.515,58.623,178.064,46.516,158.944,46.516Z"/><path class="c" d="M109.588,147.379q0-19.893.08-39.785.072-28.98.127-57.961.025-15.05.029-30.1c0-2.574-4-2.579-4,0q0,28.01-.079,56.021-.06,26.7-.127,53.391-.021,9.216-.03,18.433c0,2.574,4,2.578,4,0Z"/><path class="c" d="M209.223,145.282q-17.292.006-34.583.034-24.964.027-49.928.051-8.253.008-16.506.012c-2.574,0-2.578,4,0,4q18.5,0,37-.032l49.255-.052q7.38-.007,14.761-.013c2.573,0,2.578-4,0-4Z"/><path class="c" d="M208.074,19.127c0,4.048-.015,8.1-.023,12.143q-.027,13.6-.056,27.19-.033,16.883-.067,33.765-.031,15.986-.058,31.971-.018,10.709-.029,21.415v1.517c0,2.574,4,2.578,4,0q0-9.816.023-19.632.025-15.513.056-31.028.033-16.995.067-33.989.03-14.282.059-28.563c.009-4.795.13-9.6.028-14.4,0-.13,0-.26,0-.39,0-2.574-4-2.578-4,0Z"/><path class="c" d="M107.824,21.534c4.368,0,8.737-.024,13.105-.041q12.013-.045,24.028-.1,13.756-.057,27.513-.117,12.006-.051,24.013-.1,6.536-.027,13.071-.049h.52c2.574,0,2.578-4,0-4-3.732,0-7.465.025-11.2.04l-23.041.1-27.455.118q-12.441.052-24.883.1-7.431.03-14.862.05h-.812c-2.574,0-2.578,4,0,4Z"/><path class="c" d="M108.292,130.394q19.439,0,38.875-.032,24.13-.025,48.26-.051,6.971-.007,13.943-.012c2.574,0,2.578-4,0-4q-16.662,0-33.324.032-24.911.027-49.82.051-8.967.009-17.934.012c-2.573,0-2.578,4,0,4Z"/><path class="c" d="M158.944,44.516C152.5,44.544,145.9,46,140.505,49.677a27.26,27.26,0,0,0-10.513,14.14c-3.857,11.754-1.011,26.282,8.969,34.155a31.517,31.517,0,0,0,18.339,6.441c6.6.284,13.48-.993,19.155-4.491,10.975-6.766,14.637-20.215,12.432-32.389a27.853,27.853,0,0,0-7.854-15.18,29.245,29.245,0,0,0-16.643-7.482,43.293,43.293,0,0,0-5.446-.355c-2.574-.011-2.577,3.989,0,4,5.838.025,11.714,1.2,16.611,4.513A22.168,22.168,0,0,1,184,64.5c3.306,10.032,1.585,22.552-6.588,29.783a26.024,26.024,0,0,1-14.869,6.01c-6.013.552-12.3-.217-17.655-3.151-9.911-5.432-13.919-17.08-12.105-27.882a24.629,24.629,0,0,1,7.017-13.9,25.635,25.635,0,0,1,14.546-6.566,37.657,37.657,0,0,1,4.6-.272C161.518,48.505,161.523,44.505,158.944,44.516Z"/><path class="c" d="M126.566,29.4v.035l2-2c-3.413.015-6.826.066-10.239.069a2,2,0,0,0,0,4c3.413,0,6.826-.054,10.239-.069a2.03,2.03,0,0,0,2-2V29.4a2,2,0,1,0-4,0Z"/><path class="c" d="M109.787,19.847,112.7,14l1.673-3.367c.481-.966.9-2.49,2.045-2.708a19.247,19.247,0,0,1,3.379-.023l4.921,0q7.07,0,14.139,0,30.432.006,60.866-.008a4.828,4.828,0,0,1,2.238.171c.635.368.955,1.321,1.267,1.948q.752,1.506,1.5,3.015l3.388,6.816c1.146,2.306,4.6.282,3.454-2.019l-3.071-6.178c-1.151-2.316-2.345-5.955-4.75-7.162-1.491-.748-3.237-.592-4.86-.59l-4.8,0-14.379,0q-31.071.006-62.141-.009a6.7,6.7,0,0,0-3.9.887,7.7,7.7,0,0,0-2.4,3.119c-.452.9-.895,1.8-1.343,2.7l-3.592,7.225c-1.142,2.3,2.307,4.327,3.454,2.019Z"/><path class="d" d="M173.3,69.695a16.1,16.1,0,0,1,.511,6.97c.027-.207-.014.073-.024.128-.023.123-.044.247-.069.37-.054.263-.116.524-.184.783a16.462,16.462,0,0,1-.573,1.762,5.469,5.469,0,0,1-.284.643c-.125.259-.258.514-.4.762a8.75,8.75,0,0,1-.494.77c-.19.261.171-.184-.038.04-.1.108-.2.217-.3.322-1.827,1.818,1,4.647,2.828,2.828a13.86,13.86,0,0,0,3.444-7.654,20.444,20.444,0,0,0-.554-8.787,2,2,0,0,0-3.857,1.063Z"/><path class="d" d="M167.326,90.958a10.782,10.782,0,0,0,1.725-1.082,1.929,1.929,0,0,0,.955-1.993,1.493,1.493,0,0,0-.238-.744l-.312-.4a2,2,0,0,0-.883-.515l-.532-.071a1.987,1.987,0,0,0-1.009.273,10.859,10.859,0,0,1-1.725,1.083,2.238,2.238,0,0,0-.919,1.2,1.522,1.522,0,0,0-.036.8,1.484,1.484,0,0,0,.238.744l.312.405a2,2,0,0,0,.883.514l.531.071a1.991,1.991,0,0,0,1.01-.273Z"/><path class="c" d="M158.943,34.885c-8.586.029-17.355,1.989-24.517,6.9A35.885,35.885,0,0,0,120.641,60.46c-5.075,15.662-1.234,34.85,12.1,45.252,6.966,5.434,15.6,8.025,24.366,8.335,8.687.306,17.7-1.4,25.149-6.034,14.377-8.947,19.164-26.651,16.283-42.648a36.9,36.9,0,0,0-10.217-19.979c-6.036-5.869-14.013-8.98-22.267-10.051a56.761,56.761,0,0,0-7.113-.45c-2.575-.008-2.578,3.992,0,4,8.017.026,16.123,1.668,22.824,6.262a30.612,30.612,0,0,1,11.569,15.882c4.444,13.683,2.033,30.73-9.1,40.569-5.631,4.976-13.046,7.584-20.458,8.265-8.207.754-16.786-.329-24.087-4.331a32.316,32.316,0,0,1-14.14-15.61,41.03,41.03,0,0,1-2.421-22.81,33.665,33.665,0,0,1,9.581-18.83,35.159,35.159,0,0,1,19.953-9.019,50.714,50.714,0,0,1,6.281-.378C161.516,38.877,161.521,34.877,158.943,34.885Z"/><path class="b" d="M35.262,76.17c0-21.99.089-42.761.089-69.694,0-2.788,1.146-4.492,2.557-4.492,1.675,0,2.733,1.408,2.733,4.492,0,26.933-.12,54.444-.12,69.619"/><path class="b" d="M37.951,176.774c-6.091,0-26.548.03-33.972.036a1.953,1.953,0,0,1-1.951-1.955c0-2.651-.033-4.642-.033-8.228,0-3.7,2.748-7.141,6.04-7.141h25.2c0-2.569-.056-6.122-.07-9.038a62.7,62.7,0,0,1-3.153-6.517c-1.05-9.829-1.4-14.731-2.227-31.215-.183-3.653-1.127-29.556.827-32.735,2.185-3.557,7.44-4.163,9.3-3.97,1.859-.193,7.107.416,9.291,3.97,1.954,3.179,1.01,29.082.827,32.735C47.2,129.2,46.853,134.1,45.8,143.931a41.484,41.484,0,0,1-3.062,6.223c-.013,2.962-.072,6.673-.072,9.332h25.2c3.291,0,6.039,3.438,6.039,7.141,0,3.586-.029,5.577-.033,8.228a1.953,1.953,0,0,1-1.951,1.955c-7.424-.006-27.881-.036-33.972-.036"/><path class="d" d="M37.951,176.774c-6.091,0-26.548.03-33.972.036a1.953,1.953,0,0,1-1.951-1.955c0-2-.02-3.626-.03-5.848,17.948.011,54.361.038,71.908.05-.012,2.2-.029,3.812-.032,5.8a1.953,1.953,0,0,1-1.951,1.955c-7.424-.006-27.881-.036-33.972-.036"/><path class="c" d="M8.645,171.013q10.593,0,21.186.013l29.545.021q3.9,0,7.793,0c2.574,0,2.578-4,0-4q-9.762,0-19.525-.013-15-.01-30.01-.021-4.494,0-8.989,0c-2.574,0-2.578,4,0,4Z"/><path class="c" d="M28.6,114.445a48.785,48.785,0,0,1,18.62.077,2.057,2.057,0,0,0,2.461-1.4,2.018,2.018,0,0,0-1.4-2.46,53.987,53.987,0,0,0-20.748-.077c-2.515.543-1.45,4.4,1.064,3.857Z"/><path class="c" d="M35.757,143.988a9.25,9.25,0,0,1,1.726-.421l-.532.072a6.891,6.891,0,0,1,1.71-.011l-.531-.072a6.1,6.1,0,0,1,1.477.4l-.478-.2c.184.079.362.165.538.26a2,2,0,1,0,2.019-3.454,8.681,8.681,0,0,0-6.992-.428,2.122,2.122,0,0,0-1.2.919,2,2,0,0,0,2.259,2.938Z"/><path class="c" d="M37.951,174.774q-12.855,0-25.711.027l-6.207.008a11.866,11.866,0,0,1-2,.029c.14.06-.11-.145.021.1a2.13,2.13,0,0,1-.03-.794q0-1.015-.009-2.03Q4,170.063,4,168.011a7.955,7.955,0,0,1,.725-4.184,4.681,4.681,0,0,1,2.194-2.117c1.281-.527,2.973-.224,4.336-.224H33.234a2.029,2.029,0,0,0,2-2c0-2.252-.033-4.5-.053-6.756a8.2,8.2,0,0,0-.29-3.291c-.4-.862-.873-1.693-1.311-2.535a12.875,12.875,0,0,1-1.661-3.845q-.228-2.154-.439-4.31c-.615-6.369-1-12.754-1.341-19.142-.588-11.037-1.166-22.18-.535-33.227.063-1.1.149-2.206.276-3.3.046-.4.006-.066,0,.012.016-.108.03-.218.048-.326.034-.2.064-.4.1-.6.067-.35.172-.688.251-1.035.091-.4.048-.088-.031.037.091-.145.166-.3.266-.439A5.469,5.469,0,0,1,32.321,79.2a10.338,10.338,0,0,1,3.84-1.168,12.745,12.745,0,0,1,6.93.956,6.427,6.427,0,0,1,1.828,1.293c.208.216.353.5.557.709.282.288-.009-.1.011-.012a21.2,21.2,0,0,1,.452,2.109c-.063-.448.023.222.037.354.029.258.054.516.077.774.056.607.1,1.214.136,1.822.083,1.356.133,2.714.167,4.072.076,3,.075,6.008.043,9.011-.049,4.468-.149,8.94-.36,13.4-.341,7.231-.706,14.469-1.3,21.685-.227,2.764-.5,5.525-.786,8.283a11.994,11.994,0,0,1-1.7,4.391,23.524,23.524,0,0,0-1.344,2.5,11.19,11.19,0,0,0-.194,3.633c-.02,2.156-.048,4.313-.05,6.47a2.029,2.029,0,0,0,2,2H66.953a4.111,4.111,0,0,1,3.294,1.093c2.044,1.976,1.664,4.851,1.651,7.436-.006,1.262-.016,2.525-.021,3.787a4.576,4.576,0,0,1,0,1.053c-.07.25.09-.09-.024-.01,0,0,.2.036-.11-.035a3.814,3.814,0,0,0-.785,0L65.44,174.8q-7.228-.007-14.456-.018-6.516-.007-13.033-.011c-2.574,0-2.578,4,0,4q14.31,0,28.619.031c1.967,0,4.27.326,6.2-.091,3.5-.756,3.1-4.523,3.118-7.276.019-3.263.4-6.67-1.256-9.63a8.305,8.305,0,0,0-7.681-4.322H42.669l2,2c0-3.111.057-6.222.072-9.332l-.273,1.009c.914-1.632,1.836-3.27,2.594-4.982a14.99,14.99,0,0,0,1.008-4.8c.276-2.687.529-5.376.742-8.069.551-6.963.911-13.947,1.233-20.924.2-4.42.306-8.847.354-13.272a124.334,124.334,0,0,0-.465-16.045c-.252-2.115-.582-3.888-2.078-5.511-2.2-2.385-5.7-3.464-8.869-3.577-4.769-.171-11.484,1.265-12.735,6.7-1.1,4.785-.857,10.044-.857,14.916,0,5.061.113,10.123.307,15.18.246,6.406.612,12.815,1.054,19.21q.281,4.06.663,8.113.2,2.123.425,4.241a12.554,12.554,0,0,0,1.207,4.447c.754,1.574,1.605,3.1,2.386,4.66l-.273-1.01c.016,3.013.067,6.025.07,9.038l2-2H11.714a24.484,24.484,0,0,0-5.18.171A7.755,7.755,0,0,0,2.592,160c-2.446,2.668-2.6,5.822-2.591,9.255.005,1.4.017,2.807.023,4.21.007,1.663.031,3.207,1.388,4.387,1.634,1.42,4.3.961,6.32.959l15.552-.02q7.334-.009,14.667-.013c2.574,0,2.578-4,0-4Z"/><path class="c" d="M37.262,76.17c0-19.6.068-39.206.084-58.809q0-4.2.005-8.409A21.084,21.084,0,0,1,37.424,5.4a3.473,3.473,0,0,1,.332-1.078c.085-.151.44-.448.248-.35-.056.028.142.054.17.073-.214-.148.042.093.063.146a6.7,6.7,0,0,1,.4,2.531c.015,2.841,0,5.682,0,8.522q-.015,16.208-.061,32.415-.036,14.22-.055,28.439c0,2.574,4,2.579,4,0,0-20.446.1-40.893.116-61.34,0-2.889.111-5.8,0-8.689-.081-2.037-.6-4.371-2.493-5.489A4.126,4.126,0,0,0,35,1.331c-1.775,1.923-1.651,4.7-1.651,7.129q0,16.728-.042,33.458-.034,17.126-.047,34.252c0,2.573,4,2.578,4,0Z"/></svg>